<svg width="78" height="87" viewBox="0 0 78 87" fill="none" xmlns="http://www.w3.org/2000/svg">
<path d="M77.094 0L70.1598 77.6809L38.9902 86.322L7.90651 77.6929L0.979492 0H77.094Z" fill="#E44D26"/>
<path d="M39.0371 79.7171L64.2237 72.7346L70.1492 6.35254H39.0371V79.7171Z" fill="#F16529"/>
<path d="M25.5572 25.4101H39.0371V15.8813H15.1436L15.3715 18.4377L17.7136 44.6963H39.0371V35.1676H26.4281L25.5572 25.4101V25.4101ZM27.7048 49.4608H18.1394L19.4742 64.4224L38.9932 69.8406L39.0371 69.8287V59.9148L38.9953 59.9258L28.3833 57.0604L27.7048 49.4608V49.4608Z" fill="#EBEBEB"/>
<path d="M39.0042 44.6963H50.7378L49.6315 57.0544L39.0039 59.9228V69.8361L58.5384 64.4224L58.6816 62.8124L60.9211 37.7263L61.1535 35.1676H39.0042V44.6963ZM39.0042 25.3868V25.4101H62.0206L62.2115 23.2684L62.6459 18.4377L62.8736 15.8813H39.0042V25.3871V25.3868Z" fill="white"/>
</svg>
