<svg width="84" height="84" viewBox="0 0 84 84" fill="none" xmlns="http://www.w3.org/2000/svg">
<path d="M31.2486 64.3915C31.2486 64.3915 28.1203 66.2119 33.4779 66.8262C39.9695 67.5677 43.2869 67.4614 50.4387 66.1095C50.4387 66.1095 52.3228 67.2875 54.9491 68.3086C38.911 75.1796 18.6532 67.9103 31.2486 64.3915ZM29.2877 55.4238C29.2877 55.4238 25.7781 58.0219 31.1403 58.5771C38.0749 59.2931 43.55 59.3515 53.0289 57.5271C53.0289 57.5271 54.3368 58.856 56.3968 59.5818C37.0098 65.2518 15.4166 60.0281 29.2877 55.4238V55.4238Z" fill="#0074BD"/>
<path d="M45.8079 40.2091C49.7618 44.7602 44.771 48.852 44.771 48.852C44.771 48.852 54.8044 43.6735 50.1976 37.1858C45.8932 31.1385 42.5936 28.1348 60.458 17.7739C60.458 17.7746 32.4158 24.7761 45.8079 40.2091V40.2091Z" fill="#EA2D2E"/>
<path d="M67.0178 71.0251C67.0178 71.0251 69.3338 72.9348 64.4663 74.4107C55.2119 77.2142 25.9405 78.0594 17.8109 74.5229C14.8899 73.2511 20.3696 71.4877 22.0936 71.1156C23.8911 70.7265 24.9174 70.7974 24.9174 70.7974C21.667 68.509 3.90891 75.2927 15.8986 77.2385C48.5936 82.5383 75.4973 74.8517 67.0178 71.0251V71.0251ZM32.7544 46.1302C32.7544 46.1302 17.8667 49.6668 27.4827 50.9524C31.5436 51.4957 39.6352 51.3711 47.1774 50.7384C53.3396 50.2207 59.5235 49.1149 59.5235 49.1149C59.5235 49.1149 57.3526 50.0461 55.7802 51.1184C40.6589 55.0959 11.4545 53.2433 19.863 49.1772C26.9715 45.7391 32.7544 46.1302 32.7544 46.1302V46.1302ZM59.4618 61.058C74.8318 53.0734 67.7246 45.3998 62.764 46.4334C61.5513 46.6861 61.0073 46.9059 61.0073 46.9059C61.0073 46.9059 61.4588 46.1978 62.3198 45.8933C72.1327 42.4447 79.6782 56.0672 59.1547 61.4629C59.1547 61.4616 59.3903 61.2483 59.4618 61.058V61.058Z" fill="#0074BD"/>
<path d="M50.1971 1.0415C50.1971 1.0415 58.7074 9.557 42.1233 22.6472C28.8237 33.1512 39.0907 39.1388 42.1187 45.9828C34.3546 38.9787 28.6596 32.8119 32.4797 27.073C38.0893 18.6507 53.63 14.5655 50.1971 1.0415V1.0415Z" fill="#EA2D2E"/>
<path d="M34.2654 82.7012C49.0153 83.6442 71.6717 82.1762 72.2078 75.1963C72.2078 75.1963 71.1769 77.8423 60.0167 79.9416C47.4259 82.312 31.8937 82.0357 22.6846 80.5152C22.6846 80.5159 24.5713 82.0777 34.2654 82.7012V82.7012Z" fill="#0074BD"/>
</svg>
