<svg width="86" height="86" viewBox="0 0 86 86" fill="none" xmlns="http://www.w3.org/2000/svg">
<path d="M85.9748 0H0.0251953C0.0112803 0 0 0.0112803 0 0.0251953V85.9748C0 85.9887 0.0112803 86 0.0251953 86H85.9748C85.9887 86 86 85.9887 86 85.9748V0.0251953C86 0.0112803 85.9887 0 85.9748 0Z" fill="#F7DF1E"/>
<path d="M54.4219 62.1484C56.1016 65.0039 58.4531 67.0195 62.3164 67.0195C65.6758 67.0195 67.8594 65.3398 67.8594 62.9883C67.8594 60.3008 65.6758 59.293 61.9805 57.6133L59.9648 56.7734C54.0859 54.2539 50.2227 51.2305 50.2227 44.6797C50.2227 38.6328 54.7578 33.9297 61.9805 33.9297C67.1875 33.9297 70.8828 35.7773 73.4023 40.4805L67.1875 44.5117C65.8438 41.9922 64.332 40.9844 61.9805 40.9844C59.6289 40.9844 58.1172 42.4961 58.1172 44.5117C58.1172 46.8633 59.6289 47.8711 63.1562 49.3828L65.1719 50.2227C72.0586 53.2461 75.9219 56.1016 75.9219 62.9883C75.9219 70.2109 70.2109 74.2422 62.4844 74.2422C54.9258 74.2422 50.0547 70.7148 47.7031 66.0117L54.4219 62.1484ZM25.8672 62.8203C27.2109 65.0039 28.2188 67.0195 31.0742 67.0195C33.7617 67.0195 35.4414 66.0117 35.4414 61.9805V34.0977H43.5039V61.6445C43.5039 70.043 38.6328 73.7383 31.4102 73.7383C24.8594 73.7383 21.1641 70.3789 19.3164 66.3477L25.8672 62.8203Z" fill="black"/>
</svg>
