<svg width="35" height="78" viewBox="0 0 35 78" fill="none" xmlns="http://www.w3.org/2000/svg">
<path fill-rule="evenodd" clip-rule="evenodd" d="M32.827 25.396C33.8512 28.3586 34.5888 31.3832 34.8313 34.5181C35.1324 38.4073 34.9946 42.269 34.1747 46.0943C34.1523 46.1996 34.1051 46.2985 34.07 46.4006C33.8129 46.4012 33.5506 46.3693 33.2992 46.4083C31.175 46.742 29.0527 47.0878 26.9305 47.4318C24.7367 47.7872 22.5398 48.1285 20.3498 48.5082C19.5739 48.6422 18.6136 48.482 18.3003 49.5553C18.2914 49.5847 18.202 49.5898 18.1504 49.6064L18.2563 43.1929C18.2199 38.0346 18.1842 32.8763 18.1484 27.718L19.1707 27.5425C20.8425 27.2688 22.5142 26.9912 24.1873 26.7251C26.1839 26.408 28.1824 26.0998 30.1802 25.7903C31.0614 25.6531 31.9439 25.5274 32.827 25.396V25.396Z" fill="#439934"/>
<path fill-rule="evenodd" clip-rule="evenodd" d="M16.0396 68.3027C14.9613 67.3756 13.8452 66.4892 12.8115 65.5142C7.24931 60.2679 3.18086 54.0931 1.17726 46.6485C0.625311 44.5996 0.257134 42.5175 0.139088 40.4003C0.0561362 38.9187 -0.0638265 37.4237 0.04082 35.9497C0.319665 32.0293 0.886289 28.1465 2.03613 24.3703L2.0993 24.2822C2.21096 24.4309 2.37176 24.5623 2.42855 24.7302C3.55095 28.0355 4.66505 31.3433 5.77341 34.6531C9.2561 45.0539 12.7343 55.4573 16.2228 65.8556C16.291 66.0585 16.4678 66.2251 16.5948 66.4082L16.0396 68.3027V68.3027Z" fill="#45A538"/>
<path fill-rule="evenodd" clip-rule="evenodd" d="M32.827 25.3959C31.9439 25.5274 31.0608 25.6531 30.1796 25.789C28.1817 26.0985 26.1832 26.4067 24.1867 26.7238C22.5136 26.9899 20.8418 27.2674 19.17 27.5412L18.1478 27.7167L18.1401 27.0499C18.1063 26.5017 18.0482 25.9543 18.0419 25.4061C17.9978 21.9107 17.9704 18.4152 17.927 14.9198C17.9002 12.7318 17.86 10.5444 17.8153 8.35705C17.7879 6.99792 17.7586 5.63815 17.6973 4.28094C17.6641 3.5516 17.5467 2.8261 17.4988 2.09676C17.472 1.67754 17.5091 1.25512 17.5174 0.833984C18.0387 1.84408 18.5485 2.86183 19.0845 3.86427C19.9312 5.44928 21.2802 6.61698 22.4944 7.89125C27.2948 12.927 30.7028 18.7821 32.827 25.3959V25.3959Z" fill="#46A037"/>
<path fill-rule="evenodd" clip-rule="evenodd" d="M18.15 49.6054C18.2017 49.5888 18.2917 49.5837 18.3 49.5544C18.6133 48.4811 19.5736 48.6413 20.3495 48.5073C22.5394 48.1283 24.7364 47.7862 26.9301 47.4308C29.0524 47.0869 31.1747 46.7411 33.2989 46.4073C33.5503 46.3678 33.8125 46.4003 34.0697 46.3997C33.6728 47.8162 33.3601 49.2634 32.8567 50.6411C32.2849 52.2037 31.5933 53.7288 30.8588 55.2238C29.7613 57.459 28.3939 59.5437 26.805 61.4535C25.5805 62.9262 24.2157 64.2872 22.8476 65.6317C22.0915 66.3751 21.2001 66.9806 20.3705 67.6487L20.1555 67.5019L19.3809 66.8396L18.5794 65.0829C18.0275 63.0264 17.7378 60.9328 17.6899 58.8054L17.7046 58.4474L17.8137 56.8994C17.8501 56.3711 17.8986 55.8434 17.9209 55.3138C18.0032 53.411 18.0747 51.5082 18.15 49.6054V49.6054Z" fill="#409433"/>
<path fill-rule="evenodd" clip-rule="evenodd" d="M18.1497 49.6061C18.0744 51.5088 18.0029 53.4116 17.9219 55.315C17.8995 55.8447 17.851 56.3724 17.8147 56.9007L17.3265 57.0851C16.2424 53.8934 15.1577 50.7355 14.0965 47.5693C12.3418 42.3312 10.6081 37.0849 8.85591 31.8455C7.44127 27.6163 6.01514 23.3915 4.58071 19.1686C4.51371 18.9708 4.32101 18.8164 4.18701 18.6415L7.31109 12.8975C7.41829 13.0838 7.55995 13.258 7.62759 13.4583C9.07286 17.7354 10.5156 22.0132 11.9462 26.2954C13.8068 31.8659 15.656 37.4409 17.5154 43.0121C17.5894 43.2348 17.7119 43.4402 17.8287 43.6897L18.2562 43.192C18.2205 45.3302 18.1848 47.4678 18.1497 49.6061V49.6061Z" fill="#4FAA41"/>
<path fill-rule="evenodd" clip-rule="evenodd" d="M4.18792 18.6421C4.32192 18.8169 4.51399 18.9713 4.58162 19.1692C6.01605 23.392 7.44218 27.6168 8.85682 31.8461C10.609 37.0854 12.3427 42.3318 14.0974 47.5698C15.1579 50.7354 16.2427 53.8939 17.3274 57.0857L17.8156 56.9013L17.7065 58.4493L17.6076 58.8059C17.4378 60.5007 17.2949 62.1993 17.0882 63.8902C16.9842 64.7376 16.7634 65.5697 16.5956 66.4088C16.4692 66.2256 16.2918 66.0591 16.2236 65.8562C12.7351 55.4573 9.2569 45.0545 5.77421 34.6537C4.66585 31.3439 3.55175 28.036 2.42935 24.7307C2.37256 24.5629 2.2124 24.4315 2.1001 24.2828C2.79561 22.4023 3.49177 20.5219 4.18792 18.6421V18.6421Z" fill="#4AA73C"/>
<path fill-rule="evenodd" clip-rule="evenodd" d="M18.2557 43.1923L17.8282 43.6901C17.7114 43.4406 17.5889 43.2345 17.5149 43.0124C15.6561 37.4412 13.8063 31.8663 11.9456 26.2958C10.515 22.0135 9.07231 17.7358 7.62704 13.4587C7.56004 13.2583 7.41838 13.0835 7.31055 12.8978L11.1742 7.81543C11.296 7.97814 11.4696 8.12299 11.5328 8.30612C12.6054 11.4462 13.6685 14.59 14.7251 17.7358C15.7123 20.6736 16.6847 23.6158 17.6833 26.5497C17.7503 26.7462 17.9832 26.8853 18.1389 27.0513L18.1466 27.7181C18.1836 32.8751 18.22 38.034 18.2557 43.1923V43.1923Z" fill="#57AE47"/>
<path fill-rule="evenodd" clip-rule="evenodd" d="M18.1405 27.0499C17.9848 26.884 17.7519 26.7448 17.6849 26.5483C16.6863 23.6144 15.7139 20.6722 14.7267 17.7344C13.6701 14.5886 12.607 11.4454 11.5344 8.30472C11.4712 8.12159 11.2977 7.97675 11.1758 7.81403C12.4322 6.5838 13.6497 5.30954 14.9565 4.13609C16.1184 3.09345 17.0526 1.97552 17.0953 0.327978C17.0972 0.259702 17.133 0.191427 17.1879 0L17.519 0.833344C17.5107 1.25512 17.4731 1.6769 17.5005 2.09612C17.5484 2.82546 17.6658 3.55096 17.699 4.2803C17.7602 5.63751 17.7896 6.99728 17.817 8.35641C17.861 10.5438 17.9012 12.7311 17.9287 14.9192C17.9714 18.4146 17.9995 21.9101 18.0435 25.4055C18.0486 25.9549 18.1061 26.5017 18.1405 27.0499V27.0499Z" fill="#60B24F"/>
<path fill-rule="evenodd" clip-rule="evenodd" d="M16.5937 66.408C16.7615 65.5689 16.9823 64.7362 17.0863 63.8895C17.2937 62.1992 17.436 60.5 17.6057 58.8052L17.6478 58.7988L17.6899 58.8058C17.7378 60.9332 18.0275 63.0268 18.5794 65.0834C18.4671 65.2314 18.3083 65.3635 18.2489 65.5307C17.785 66.8387 17.3479 68.157 16.8815 69.4651C16.8177 69.6438 16.6403 69.7829 16.5152 69.9399L16.0386 68.3025L16.5937 66.408V66.408Z" fill="#A9AA88"/>
<path fill-rule="evenodd" clip-rule="evenodd" d="M16.5161 69.9405C16.6412 69.7835 16.8192 69.6444 16.8824 69.4657C17.3488 68.1577 17.7865 66.84 18.2498 65.5313C18.3091 65.3641 18.4674 65.232 18.5803 65.084L19.3811 66.8413C19.2229 67.0659 19.0047 67.2682 18.9166 67.5183L17.3826 72.0226C17.3195 72.2031 17.1038 72.3308 16.9596 72.4833L16.5161 69.9405V69.9405Z" fill="#B6B598"/>
<path fill-rule="evenodd" clip-rule="evenodd" d="M16.96 72.4828C17.1048 72.3309 17.3198 72.2027 17.383 72.0221L18.917 67.5178C19.0044 67.2683 19.2233 67.0654 19.3815 66.8408L20.1568 67.5025C19.7822 67.8726 19.5742 68.3001 19.6993 68.8406L19.4638 69.6114C19.3566 69.7435 19.2016 69.8583 19.1486 70.0096C18.6132 71.5429 18.1021 73.0845 17.563 74.6178C17.4947 74.8125 17.3052 74.965 17.1712 75.136C17.1016 74.2509 17.0308 73.3678 16.96 72.4828V72.4828Z" fill="#C2C1A7"/>
<path fill-rule="evenodd" clip-rule="evenodd" d="M17.1714 75.1359C17.3047 74.9643 17.4942 74.8117 17.5631 74.6178C18.1023 73.0851 18.6134 71.5435 19.1488 70.0095C19.2018 69.8589 19.3562 69.7434 19.464 69.6113L19.1392 73.1495C19.0524 73.2497 18.9267 73.3371 18.8853 73.4539C18.5184 74.4838 18.1725 75.5213 17.8043 76.5512C17.7284 76.7637 17.5829 76.9513 17.4693 77.1497C17.3685 77.0176 17.1879 76.89 17.1797 76.7522C17.1471 76.2155 17.1694 75.6751 17.1714 75.1359V75.1359Z" fill="#CECDB7"/>
<path fill-rule="evenodd" clip-rule="evenodd" d="M17.4688 77.1496C17.5823 76.9505 17.7278 76.7629 17.8037 76.5511C18.1726 75.5218 18.5178 74.4843 18.8847 73.4538C18.9261 73.337 19.0525 73.2502 19.1386 73.1494L19.1463 75.4721L18.3691 77.4654L17.4688 77.1496V77.1496Z" fill="#DBDAC7"/>
<path fill-rule="evenodd" clip-rule="evenodd" d="M18.3696 77.466L19.1468 75.4727L19.307 77.831L18.3696 77.466V77.466Z" fill="#EBE9DC"/>
<path fill-rule="evenodd" clip-rule="evenodd" d="M19.6991 68.841C19.574 68.3005 19.7814 67.8724 20.1566 67.5029L20.3716 67.6497L19.6991 68.841V68.841Z" fill="#CECDB7"/>
<path fill-rule="evenodd" clip-rule="evenodd" d="M17.6902 58.8061L17.6481 58.799L17.606 58.8054L17.7049 58.4487L17.6902 58.8061V58.8061Z" fill="#4FAA41"/>
</svg>
