<svg width="108" height="56" viewBox="0 0 108 56" fill="none" xmlns="http://www.w3.org/2000/svg">
<path fill-rule="evenodd" clip-rule="evenodd" d="M0 50.8724H3.57568V36.7881L9.08938 49.0708C9.74395 50.5439 10.6181 51.0627 12.3647 51.0627C14.1118 51.0627 14.9854 50.5439 15.64 49.0708L21.1537 36.7881V50.8724H24.7018V36.815C24.7018 35.4508 24.1555 34.7944 23.0367 34.4396C20.3346 33.5936 18.5054 34.3307 17.6869 36.1599L12.2827 48.2517L7.04246 36.1599C6.25086 34.3307 4.39481 33.5936 1.69271 34.4396C0.546293 34.7944 0.000611997 35.4502 0.000611997 36.815V50.8724H0V50.8724ZM27.6768 39.4076H31.2249V47.1597C31.198 47.5959 31.3613 48.579 33.3269 48.6065C34.3094 48.6328 40.9964 48.6065 41.0509 48.6065V39.3801H44.6265C44.6534 39.3801 44.6265 51.9626 44.6265 52.0176C44.6534 55.129 40.778 55.7836 39.0039 55.8386H27.7588V53.4369C27.7588 53.4369 38.977 53.4644 39.0039 53.4369C41.2968 53.2185 41.0239 52.0727 41.0239 51.6903V50.7617H33.4633C29.9421 50.7079 27.7037 49.1785 27.6768 47.4044C27.6768 47.2411 27.7588 39.4902 27.6768 39.4076V39.4076ZM104.347 30.4822C102.165 30.4278 100.499 30.6186 99.0521 31.2463C98.6434 31.4102 98.0151 31.4102 97.9338 31.929C98.1522 32.1462 98.206 32.5016 98.37 32.8026C98.7248 33.3489 99.2986 34.0848 99.8167 34.4671C100.363 34.9045 100.936 35.3407 101.536 35.7231C102.628 36.3776 103.829 36.7324 104.839 37.3889C105.467 37.77 106.067 38.2624 106.668 38.6986C106.94 38.917 107.159 39.2449 107.514 39.3807V39.3269C107.323 39.081 107.268 38.7261 107.104 38.4521L106.285 37.6336C105.494 36.5966 104.484 35.668 103.419 34.9045C102.573 34.3038 100.662 33.4578 100.307 32.4753C100.28 32.4478 100.252 32.4478 100.252 32.4202C100.853 32.3376 101.563 32.1205 102.109 31.9828C103.038 31.7381 103.883 31.792 104.838 31.5466C105.275 31.4096 105.712 31.3007 106.149 31.1643V30.9184C105.658 30.4271 105.33 29.745 104.785 29.3083C103.393 28.1074 101.864 26.9334 100.308 25.951C99.4344 25.3778 98.37 25.0229 97.4425 24.5592C97.1416 24.4228 96.5953 24.3408 96.3781 24.068C95.8856 23.4673 95.6409 22.6757 95.2586 21.966C94.4578 20.4092 93.7115 18.8251 93.0208 17.2164C92.5571 16.152 92.2286 15.0875 91.6566 14.1044C88.8175 9.46432 85.7875 6.65333 81.066 3.89617C80.0566 3.32296 78.8558 3.07765 77.5723 2.77728C76.8902 2.72222 76.2081 2.69531 75.5254 2.64025C75.1155 2.4763 74.6793 1.95815 74.2695 1.71223C72.7138 0.729756 68.7013 -1.42666 67.5543 1.41186C66.8171 3.18593 68.6463 4.93309 69.3008 5.83419C69.7658 6.46185 70.3378 7.17209 70.6663 7.88111C70.8834 8.34482 70.911 8.80913 71.1024 9.30037C71.5661 10.5288 71.9485 11.866 72.5217 12.9849C72.8215 13.5581 73.1487 14.1589 73.5311 14.6776C73.7495 14.978 74.1594 15.1144 74.2132 15.6057C73.8308 16.1514 73.8045 16.9705 73.5861 17.6526C72.6306 20.737 72.9854 24.5311 74.4047 26.8233C74.8421 27.5054 75.8514 29.0067 77.2713 28.4341C78.4997 27.9153 78.2263 26.3865 78.5811 24.9948C78.6637 24.6944 78.6086 24.476 78.7719 24.2577V24.3121C79.1268 25.0762 79.5091 25.8133 79.8914 26.5499C80.71 27.8878 82.1843 29.307 83.4402 30.2344C84.0672 30.7257 84.586 31.5723 85.4321 31.8446V31.7895H85.3507C85.1867 31.5448 84.9408 31.4353 84.75 31.2438C84.2587 30.7526 83.713 30.1519 83.3032 29.6062C82.1849 28.0774 81.1749 26.3853 80.2469 24.6382C79.8095 23.7921 79.4271 22.8641 79.0735 22.018C78.9359 21.6907 78.9359 21.1995 78.6361 21.008C78.2263 21.6357 77.6543 22.1545 77.3252 22.8916C76.8339 24.0656 76.7526 25.5117 76.5892 26.9861C76.4791 27.0405 76.5066 27.013 76.4516 27.068C75.5792 26.8496 75.2782 25.9485 74.951 25.1845C74.16 23.2464 73.9954 20.1351 74.705 17.8967C74.8959 17.3235 75.7432 15.5219 75.3884 14.9762C75.2232 14.4574 74.705 14.1301 74.4053 13.7209C74.0229 13.2296 73.6681 12.5745 73.3959 12.0012C72.7413 10.4725 72.4403 8.78038 71.7301 7.25223C71.3753 6.51507 70.8302 5.77791 70.3659 5.15026C69.8471 4.4131 69.2739 3.89495 68.8653 3.02137C68.7288 2.721 68.538 2.22976 68.7288 1.90187C68.8102 1.68347 68.8928 1.6015 69.11 1.51952C69.4648 1.24668 70.4754 1.62903 70.8565 1.76484C71.8396 2.20162 72.6856 2.58397 73.5317 3.15718C73.9416 3.43002 74.3514 3.94817 74.8427 4.0852H75.389C76.2625 4.27607 77.2444 4.13965 78.0629 4.38557C79.5097 4.82175 80.8195 5.50446 81.994 6.26915C85.5966 8.53446 88.5177 11.7553 90.5371 15.6038C90.8644 16.2315 91.0008 16.8047 91.2743 17.4599C91.8481 18.7978 92.584 20.162 93.1572 21.4448C93.7035 22.7552 94.2767 24.0656 95.0677 25.1294C95.5051 25.7026 97.1422 26.003 97.8793 26.3027C98.3981 26.5211 99.2435 26.7664 99.736 27.0674C100.691 27.6131 101.591 28.2958 102.493 28.9235C102.928 29.2269 104.292 29.909 104.347 30.4822V30.4822Z" fill="#00678C"/>
<path fill-rule="evenodd" clip-rule="evenodd" d="M76.5069 6.76343C76.13 6.76354 75.7545 6.80956 75.3887 6.90046V6.95491H75.47C75.6884 7.39169 76.0708 7.69206 76.3436 8.07379C76.5345 8.51058 76.7535 8.94737 76.9444 9.38416L77.0257 9.30219C77.4081 9.05688 77.572 8.62009 77.572 7.93799C77.4356 7.77404 77.4081 7.58317 77.2722 7.39169C77.0808 7.11824 76.7535 6.98182 76.5069 6.76343Z" fill="#00678C"/>
<path fill-rule="evenodd" clip-rule="evenodd" d="M47.3838 50.8727H57.619C58.8198 50.8727 59.9932 50.6268 60.9212 50.1894C62.4493 49.481 63.214 48.5248 63.214 47.2695V44.6494C63.214 43.64 62.3405 42.6575 60.6765 42.0292C59.7754 41.6744 58.6834 41.5105 57.619 41.5105H53.3067C51.86 41.5105 51.1779 41.0731 51.0139 40.1188C50.9864 40.0099 50.9864 39.9004 50.9864 39.7915V38.1807C50.9864 38.0718 50.9864 37.9899 51.0139 37.881C51.1779 37.1438 51.5596 36.9254 52.8155 36.8165C52.9244 36.8165 53.0608 36.789 53.1703 36.789H63.3511V34.4148H53.3343C51.8875 34.4148 51.1503 34.5237 50.4682 34.7146C48.3393 35.3967 47.4113 36.4342 47.4113 38.2633V40.3378C47.4113 41.9485 49.2398 43.3127 52.2698 43.64C52.6246 43.64 52.9519 43.6675 53.3067 43.6675H56.9919C57.1284 43.6675 57.2642 43.6675 57.3731 43.695C58.5201 43.8039 58.9838 43.9948 59.3386 44.4034C59.5295 44.6218 59.6121 44.8133 59.6121 45.0592V47.1337C59.6121 47.3796 59.4481 47.7075 59.0933 47.9797C58.7923 48.2532 58.2735 48.4171 57.5914 48.471C57.455 48.471 57.3467 48.4985 57.2091 48.4985H47.3838V50.8727ZM85.4322 46.7226C85.4322 49.1794 87.2338 50.5436 90.919 50.817C91.2462 50.8446 91.6011 50.8721 91.9283 50.8721H101.209V48.4967H91.8733C89.7713 48.4967 88.9803 47.9779 88.9803 46.7226V34.4136H85.4316V46.7226H85.4322ZM65.48 46.859V38.3985C65.48 36.2421 66.9806 34.9323 69.983 34.5225C70.284 34.4674 70.6388 34.4674 70.9386 34.4674H77.707C78.0343 34.4674 78.3353 34.4674 78.6901 34.5225C81.665 34.9323 83.1932 36.2421 83.1932 38.3985V46.859C83.1932 48.6068 82.5386 49.5342 81.0643 50.1349L84.5855 53.3014H80.4372L77.5981 50.7626L74.7314 50.9265H70.938C70.2834 50.9265 69.6007 50.8452 68.836 50.6268C66.5719 50.0254 65.48 48.8246 65.48 46.859V46.859ZM69.3285 46.6418C69.3285 46.7783 69.356 46.8865 69.3835 47.0242C69.6019 48.006 70.5293 48.5523 71.9211 48.5523H75.1701L72.1951 45.8772H76.3434L78.936 48.1975C79.4009 47.9516 79.7282 47.5693 79.8371 47.078C79.8646 46.9416 79.8646 46.8333 79.8646 46.7232V38.59C79.8646 38.5074 79.8646 38.3991 79.8371 38.289C79.6187 37.3616 78.6913 36.8434 77.3259 36.8434H71.9217C70.3385 36.8434 69.3291 37.5255 69.3291 38.59V46.6418H69.3285V46.6418ZM102.847 50.8727H103.366V48.9071H104.075V48.4973H102.137V48.9071H102.847V50.8727ZM106.832 50.8727H107.295V48.4973H106.586L105.959 50.1355L105.332 48.4973H104.595V50.8727H105.086V49.0711L105.768 50.8727H106.123L106.805 49.0711H106.832V50.8727H106.832Z" fill="#CE8B2C"/>
<path fill-rule="evenodd" clip-rule="evenodd" d="M0.791016 28.4898V19.5368H3.57448C4.22966 19.5368 4.69398 19.5919 5.02126 19.7008C5.43052 19.8647 5.75781 20.1375 6.03065 20.5743C6.27658 20.9836 6.413 21.5024 6.413 22.1031C6.413 22.9222 6.19521 23.5768 5.78534 24.0687C5.37608 24.5868 4.66584 24.8327 3.65645 24.8327H1.77287V28.4904H0.791016V28.4898V28.4898ZM1.77349 23.7952H3.68398C4.28472 23.7952 4.7209 23.6588 4.99435 23.3859C5.2678 23.1131 5.40361 22.7032 5.40361 22.1575C5.40361 21.8027 5.32163 21.5024 5.18521 21.2564C5.04879 20.9836 4.88484 20.8203 4.69398 20.7383C4.50311 20.6288 4.14769 20.6013 3.65706 20.6013H1.77349V23.7952V23.7952ZM7.36916 24.1225C7.36916 22.6213 7.69706 21.4473 8.37916 20.6288C9.06126 19.8097 9.88039 19.4004 10.8898 19.4004C11.545 19.4004 12.1457 19.5643 12.6639 19.9461C13.2101 20.3009 13.6194 20.8466 13.9467 21.5293C14.2471 22.2389 14.4104 23.058 14.4104 24.013C14.4104 25.3509 14.11 26.4429 13.5093 27.2614C12.8272 28.1894 11.9536 28.6531 10.8892 28.6531C9.79781 28.6531 8.92423 28.1619 8.26904 27.2338C7.66953 26.3884 7.36916 25.3509 7.36916 24.1225V24.1225ZM8.37916 24.15C8.37916 25.2414 8.62447 26.115 9.11632 26.7157C9.58002 27.3158 10.1808 27.6437 10.8904 27.6437C11.6 27.6437 12.2008 27.3158 12.6645 26.7157C13.1557 26.088 13.4016 25.1869 13.4016 23.9867C13.4016 23.222 13.2652 22.5399 13.0193 21.9392C12.8284 21.4754 12.555 21.0931 12.1732 20.8203C11.7994 20.5516 11.3501 20.4083 10.8898 20.411C10.1526 20.411 9.55249 20.7114 9.08879 21.3115C8.59755 21.9392 8.37916 22.8672 8.37916 24.15V24.15ZM16.8953 28.4898L14.9573 19.5368H15.9398L17.0593 25.4053C17.1957 26.0061 17.2771 26.6337 17.3866 27.2345L17.7138 25.5968L19.1331 19.5374H20.2795L21.3164 24.0687C21.5726 25.1125 21.7729 26.1693 21.9166 27.2345C21.9985 26.6612 22.1074 26.0061 22.2714 25.297L23.4178 19.5374H24.4278L22.4084 28.4904H21.4529L19.8972 21.6663L19.6513 20.6294C19.5968 21.0117 19.5148 21.3666 19.4604 21.6663L17.8778 28.4898H16.8953ZM25.3289 28.4898V19.5368H30.6242V20.6019H26.2845V23.3315H30.3514V24.3959H26.2845V27.4529H30.7882V28.4898H25.3289V28.4898ZM32.1254 28.4898V19.5368H35.3738C36.0565 19.5368 36.5747 19.6188 36.8751 19.7827C37.203 19.9467 37.4752 20.2471 37.6936 20.6288C37.8845 21.0111 37.994 21.4748 37.994 21.9667C37.994 22.6488 37.83 23.1945 37.4752 23.6313C37.1204 24.0405 36.6016 24.314 35.9195 24.4229C36.1924 24.5868 36.4108 24.7508 36.5472 24.9141C36.8475 25.2689 37.0935 25.6512 37.3112 26.0605L38.5947 28.4898H37.3663L36.3838 26.6337C36.0015 25.8972 35.7286 25.4053 35.5378 25.16C35.3469 24.9147 35.1554 24.7508 34.9646 24.6413C34.8006 24.5593 34.5553 24.5048 34.2274 24.5048H33.1085V28.4898H32.1254V28.4898ZM33.1079 23.4948H35.1824C35.6461 23.4948 36.0009 23.4404 36.2193 23.3309C36.4646 23.2214 36.6561 23.0305 36.7925 22.8121C36.9289 22.5668 36.9833 22.2934 36.9833 21.993C36.9833 21.5293 36.8745 21.1745 36.601 20.9016C36.3282 20.6563 35.9458 20.5193 35.4277 20.5193H33.1079V23.4948V23.4948ZM39.5496 28.4898V19.5368H44.8449V20.6019H40.5321V23.3315H44.5715V24.3959H40.5321V27.4529H45.0358V28.4898H39.5496ZM46.3456 28.4898V19.5368H48.8837C49.5114 19.5368 49.9757 19.5919 50.303 19.7008C50.7398 19.8372 51.0946 20.11 51.4219 20.4924C51.7222 20.8747 51.9682 21.3384 52.159 21.9116C52.323 22.4848 52.4043 23.1675 52.4043 23.9592C52.4043 24.9691 52.2679 25.8427 51.9675 26.5517C51.6672 27.2614 51.2854 27.7526 50.8211 28.053C50.3574 28.3533 49.7292 28.4898 48.9926 28.4898H46.3456V28.4898ZM47.3286 27.4529H48.8843C49.512 27.4529 49.9763 27.3433 50.3036 27.1256C50.6315 26.9347 50.8768 26.6068 51.0677 26.1431C51.2861 25.543 51.3956 24.8058 51.3956 23.9598C51.3956 23.0587 51.2867 22.3221 51.0407 21.8033C50.7948 21.2846 50.4669 20.9298 50.0852 20.7658C49.8393 20.6569 49.43 20.6019 48.8568 20.6019H47.328V27.4529H47.3286V27.4529ZM56.8536 28.4898V19.5368H59.6114C60.184 19.5368 60.6207 19.6188 60.9486 19.8097C61.2759 19.9736 61.5494 20.2464 61.7409 20.6013C61.958 20.9836 62.0681 21.3659 62.0681 21.8296C62.0681 22.2389 61.958 22.5943 61.7947 22.9216C61.6038 23.2489 61.3585 23.5218 61.0312 23.7126C61.4378 23.8722 61.7887 24.1474 62.0406 24.5042C62.2853 24.8866 62.3954 25.3503 62.3954 25.8966C62.3954 26.4429 62.2853 26.9059 62.0681 27.3158C61.8497 27.7251 61.5494 28.0255 61.167 28.2169C60.8122 28.4078 60.2935 28.4898 59.6389 28.4898H56.8536V28.4898ZM57.8373 23.304H59.4205C59.8291 23.304 60.1301 23.277 60.2941 23.222C60.5663 23.14 60.7578 22.9767 60.8936 22.7858C61.0312 22.5949 61.0845 22.3215 61.0845 21.9673C61.0845 21.6394 61.0306 21.3666 60.9205 21.1482C60.7841 20.9298 60.6207 20.7933 60.4017 20.7114C60.2109 20.6294 59.8279 20.6019 59.3098 20.6019H57.8367V23.304H57.8373V23.304ZM57.8373 27.4529H59.6652C60.0475 27.4529 60.3473 27.3984 60.5388 27.3433C60.8052 27.24 61.0274 27.047 61.167 26.7977C61.331 26.5793 61.3842 26.252 61.3842 25.8972C61.3842 25.5424 61.3304 25.2695 61.194 25.0236C61.0563 24.8052 60.8667 24.6143 60.6201 24.5048C60.4017 24.3959 60.0194 24.3409 59.5282 24.3409H57.8361V27.4529H57.8373V27.4529ZM65.779 28.4898V24.6957L62.9686 19.5368H64.142L65.5875 22.2389C65.8645 22.7372 66.1196 23.2472 66.3522 23.7677C66.5706 23.2764 66.8159 22.7577 67.1444 22.1845L68.5637 19.5368H69.682L66.7621 24.6957V28.4898H65.779V28.4898Z" fill="#00678C"/>
</svg>
