<svg width="108" height="83" viewBox="0 0 108 83" fill="none" xmlns="http://www.w3.org/2000/svg">
<path fill-rule="evenodd" clip-rule="evenodd" d="M0 75.707H3.59184V55.024L9.13047 73.0614C9.788 75.2246 10.6661 75.9865 12.4206 75.9865C14.1756 75.9865 15.0531 75.2246 15.7107 73.0614L21.2493 55.024V75.707H24.8135V55.0635C24.8135 53.0601 24.2647 52.0962 23.1408 51.5752C20.4265 50.3328 18.5891 51.4153 17.7669 54.1015L12.3382 71.8585L7.07429 54.1015C6.27912 51.4153 4.41468 50.3328 1.70036 51.5752C0.548763 52.0962 0.000614763 53.0593 0.000614763 55.0635L0 75.707ZM27.8019 58.8708H31.366V70.2549C31.339 70.8954 31.5031 72.3391 33.4776 72.3795C34.4645 72.4182 41.1817 72.3795 41.2365 72.3795V58.8304H44.8282C44.8553 58.8304 44.8282 77.308 44.8282 77.3888C44.8553 81.9579 40.9623 82.9192 39.1802 83H27.8843V79.4731C27.8843 79.4731 39.1532 79.5135 39.1802 79.4731C41.4835 79.1523 41.2093 77.4697 41.2093 76.9081V75.5445H33.6146C30.0774 75.4655 27.8289 73.2195 27.8019 70.6142C27.8019 70.3744 27.8843 58.9921 27.8019 58.8708ZM104.819 45.7637C102.627 45.6838 100.953 45.964 99.4999 46.8858C99.0893 47.1264 98.4582 47.1265 98.3765 47.8883C98.5959 48.2073 98.6499 48.7292 98.8147 49.1712C99.1711 49.9735 99.7475 51.0541 100.268 51.6156C100.817 52.2579 101.392 52.8985 101.995 53.46C103.092 54.4212 104.298 54.9422 105.313 55.9063C105.944 56.4659 106.546 57.189 107.15 57.8296C107.423 58.1503 107.643 58.6319 108 58.8313V58.7523C107.808 58.3912 107.753 57.87 107.588 57.4676L106.765 56.2656C105.971 54.7428 104.956 53.3791 103.886 52.2579C103.037 51.3758 101.117 50.1334 100.76 48.6906C100.733 48.6502 100.705 48.6502 100.705 48.6097C101.309 48.4884 102.022 48.1695 102.571 47.9673C103.504 47.608 104.353 47.6871 105.312 47.3268C105.751 47.1256 106.19 46.9656 106.629 46.7653V46.4042C106.136 45.6828 105.806 44.6811 105.259 44.0398C103.86 42.2762 102.324 40.5522 100.761 39.1095C99.8839 38.2678 98.8147 37.7466 97.883 37.0656C97.5807 36.8653 97.032 36.7449 96.8138 36.3443C96.319 35.4622 96.0732 34.2997 95.6892 33.2575C94.8848 30.9713 94.1351 28.645 93.4413 26.2826C92.9755 24.7195 92.6455 23.1563 92.0709 21.7126C89.219 14.8985 86.1753 10.7705 81.4325 6.72159C80.4185 5.87982 79.2123 5.51958 77.923 5.07848C77.2378 4.99763 76.5526 4.95811 75.8668 4.87725C75.4551 4.63649 75.0169 3.87558 74.6052 3.51444C73.0425 2.07166 69.0119 -1.09508 67.8597 3.07334C67.1191 5.67859 68.9566 8.24433 69.6141 9.56761C70.0812 10.4893 70.6558 11.5323 70.9857 12.5736C71.2038 13.2545 71.2315 13.9364 71.4238 14.6578C71.8896 16.4617 72.2737 18.4254 72.8495 20.0686C73.1507 20.9103 73.4794 21.7926 73.8635 22.5543C74.0829 22.9955 74.4946 23.1958 74.5487 23.9173C74.1645 24.7186 74.1381 25.9215 73.9187 26.9232C72.9589 31.4527 73.3153 37.0244 74.741 40.3905C75.1804 41.3922 76.1943 43.5969 77.6206 42.756C78.8546 41.9941 78.5799 39.7491 78.9363 37.7053C79.0193 37.2642 78.9639 36.9435 79.128 36.6229V36.7028C79.4845 37.8249 79.8685 38.9073 80.2525 39.989C81.0748 41.9537 82.5558 44.0379 83.8174 45.3998C84.4472 46.1213 84.9684 47.3645 85.8183 47.7644V47.6835H85.7365C85.5718 47.3241 85.3248 47.1633 85.1331 46.8821C84.6396 46.1608 84.0914 45.2786 83.6798 44.4772C82.5564 42.2322 81.5418 39.7473 80.6097 37.1816C80.1703 35.9391 79.7861 34.5763 79.4309 33.3338C79.2927 32.8532 79.2927 32.1319 78.9916 31.8506C78.5799 32.7724 78.0053 33.5343 77.6747 34.6167C77.1812 36.3408 77.0996 38.4644 76.9354 40.6296C76.8248 40.7095 76.8524 40.6691 76.7972 40.7499C75.9208 40.4291 75.6185 39.1058 75.2898 37.9839C74.4952 35.1378 74.3299 30.5688 75.0427 27.2816C75.2345 26.4399 76.0856 23.7942 75.7292 22.9928C75.5632 22.231 75.0427 21.7503 74.7416 21.1494C74.3575 20.4279 74.0011 19.4659 73.7277 18.624C73.0701 16.3791 72.7678 13.8941 72.0544 11.65C71.6979 10.5675 71.1504 9.48496 70.684 8.56325C70.1628 7.48071 69.5871 6.7198 69.1766 5.43693C69.0395 4.99583 68.8478 4.27444 69.0395 3.79293C69.1213 3.4722 69.2042 3.35183 69.4224 3.23144C69.7788 2.83077 70.794 3.39226 71.1768 3.5917C72.1643 4.23312 73.0142 4.7946 73.8641 5.63637C74.2758 6.03704 74.6875 6.79796 75.181 6.99919H75.7298C76.6072 7.27948 77.5936 7.07915 78.4158 7.44029C79.8691 8.08083 81.1848 9.0834 82.3646 10.2064C85.9835 13.533 88.9178 18.2629 90.9464 23.9145C91.2751 24.8363 91.4122 25.678 91.6869 26.6402C92.2633 28.6049 93.0025 30.6083 93.5783 32.4921C94.1271 34.4164 94.7029 36.3408 95.4974 37.903C95.9368 38.7447 97.5813 39.1859 98.3218 39.626C98.8429 39.9467 99.6921 40.3069 100.187 40.749C101.146 41.5503 102.05 42.5529 102.956 43.4747C103.393 43.9202 104.763 44.9219 104.819 45.7637Z" fill="#00678C"/>
<path fill-rule="evenodd" clip-rule="evenodd" d="M76.5069 10.0244C76.13 10.0246 75.7545 10.0928 75.3887 10.2275V10.3082H75.47C75.6884 10.9556 76.0708 11.4008 76.3436 11.9666C76.5345 12.6139 76.7535 13.2613 76.9444 13.9087L77.0257 13.7872C77.4081 13.4236 77.572 12.7762 77.572 11.7653C77.4356 11.5223 77.4081 11.2394 77.2722 10.9556C77.0808 10.5503 76.7535 10.3481 76.5069 10.0244Z" fill="#00678C"/>
<path fill-rule="evenodd" clip-rule="evenodd" d="M47.3838 75.4006H57.619C58.8198 75.4006 59.9932 75.0361 60.9212 74.3878C62.4493 73.3379 63.214 71.9207 63.214 70.0601V66.1768C63.214 64.6807 62.3405 63.2245 60.6765 62.2933C59.7754 61.7674 58.6834 61.5245 57.619 61.5245H53.3067C51.86 61.5245 51.1779 60.8762 51.0139 59.4618C50.9864 59.3004 50.9864 59.1381 50.9864 58.9767V56.5892C50.9864 56.4278 50.9864 56.3064 51.0139 56.145C51.1779 55.0524 51.5596 54.7287 52.8155 54.5673C52.9244 54.5673 53.0608 54.5265 53.1703 54.5265H63.3511V51.0076H53.3343C51.8875 51.0076 51.1503 51.169 50.4682 51.452C48.3393 52.463 47.4113 54.0007 47.4113 56.7117V59.7864C47.4113 62.1737 49.2398 64.1956 52.2698 64.6807C52.6246 64.6807 52.9519 64.7215 53.3067 64.7215H56.9919C57.1284 64.7215 57.2642 64.7215 57.3731 64.7622C58.5201 64.9236 58.9838 65.2066 59.3386 65.8122C59.5295 66.1359 59.6121 66.4197 59.6121 66.7842V69.8589C59.6121 70.2233 59.4481 70.7093 59.0933 71.1128C58.7923 71.5181 58.2735 71.761 57.5914 71.8409C57.455 71.8409 57.3467 71.8817 57.2091 71.8817H47.3838V75.4006ZM85.4322 69.2496C85.4322 72.8909 87.2338 74.9128 90.919 75.318C91.2462 75.3589 91.6011 75.3997 91.9283 75.3997H101.209V71.879H91.8733C89.7713 71.879 88.9803 71.1101 88.9803 69.2496V51.0059H85.4316V69.2496H85.4322ZM65.48 69.4517V56.912C65.48 53.716 66.9806 51.7746 69.983 51.1673C70.284 51.0856 70.6388 51.0856 70.9386 51.0856H77.707C78.0343 51.0856 78.3353 51.0856 78.6901 51.1673C81.665 51.7746 83.1932 53.716 83.1932 56.912V69.4517C83.1932 72.0422 82.5386 73.4167 81.0643 74.3071L84.5855 79.0003H80.4372L77.5981 75.2374L74.7314 75.4803H70.938C70.2834 75.4803 69.6007 75.3598 68.836 75.0361C66.5719 74.1448 65.48 72.365 65.48 69.4517ZM69.3285 69.1298C69.3285 69.3321 69.356 69.4925 69.3835 69.6966C69.6019 71.1517 70.5293 71.9614 71.9211 71.9614H75.1701L72.1951 67.9966H76.3434L78.936 71.4356C79.4009 71.0711 79.7282 70.5045 79.8371 69.7763C79.8646 69.5741 79.8646 69.4136 79.8646 69.2504V57.1959C79.8646 57.0735 79.8646 56.9129 79.8371 56.7498C79.6187 55.3752 78.6913 54.6072 77.3259 54.6072H71.9217C70.3385 54.6072 69.3291 55.6181 69.3291 57.1959V69.1298H69.3285ZM102.847 75.4006H103.366V72.4873H104.075V71.8799H102.137V72.4873H102.847V75.4006ZM106.832 75.4006H107.295V71.8799H106.586L105.959 74.308L105.332 71.8799H104.595V75.4006H105.086V72.7304L105.768 75.4006H106.123L106.805 72.7304H106.832V75.4006Z" fill="#CE8B2C"/>
</svg>
