<svg width="74" height="83" viewBox="0 0 74 83" fill="none" xmlns="http://www.w3.org/2000/svg">
<path d="M70.5858 18.6176L40.5824 1.21421C38.6922 0.137582 36.2161 0.137582 34.3109 1.21421L4.07297 18.6176C2.12295 19.7398 0.796875 21.8488 0.796875 24.1047V58.8653C0.796875 61.1212 2.15081 63.2309 4.10152 64.3592L12.0736 68.905C15.8982 70.7891 16.9578 70.7891 18.6978 70.7891C24.3623 70.7891 27.304 67.3641 27.304 61.3903V27.0729C27.3047 26.5883 27.6071 25.8672 27.1307 25.8672H23.3095C22.8255 25.8672 21.8672 26.5883 21.8672 27.0722V61.3897C21.8672 64.0377 19.4094 66.6729 14.933 64.4347L6.69384 59.668C6.40702 59.5117 6.23438 59.197 6.23438 58.8653V24.1047C6.23438 23.7771 6.54907 23.4481 6.83998 23.2803L37.0031 5.90677C37.2852 5.74704 37.6842 5.74704 37.9649 5.90677L67.846 23.2762C68.1322 23.4481 68.0866 23.7669 68.0866 24.1047V58.8653C68.0866 59.197 68.1491 59.5198 67.8671 59.6796L37.8704 77.0633C37.6135 77.2175 37.2791 77.2175 36.997 77.0633L29.305 72.476C29.0732 72.3415 28.7939 72.2932 28.5709 72.4176C26.4333 73.6295 26.0364 73.7906 24.0313 74.4859C23.5372 74.6578 22.8086 74.9562 24.3086 75.797L34.3666 81.747C35.3291 82.3043 36.4241 82.5939 37.5252 82.5939C38.6412 82.5939 39.7335 82.3043 40.6966 81.747L70.5865 64.3592C72.5379 63.2228 73.5241 61.1212 73.5241 58.8653V24.1047C73.5234 21.8488 72.5372 19.7452 70.5858 18.6176V18.6176ZM46.8301 53.3571C38.8594 53.3571 37.1044 51.1583 36.5192 47.1951C36.4499 46.7682 36.0883 46.2578 35.6533 46.2578H31.7587C31.2768 46.2578 30.8887 46.8423 30.8887 47.3222C30.8887 52.3967 33.6482 58.5452 46.8301 58.5452C56.3715 58.5452 61.843 54.8375 61.843 48.2758C61.843 41.7698 57.4475 40.0624 48.1935 38.8376C38.8397 37.6013 37.8895 36.9766 37.8895 34.7853C37.8895 32.9787 38.6942 30.5692 45.6202 30.5692C51.8081 30.5692 54.0891 31.8973 55.0278 36.0686C55.1087 36.4608 55.4669 36.7422 55.8713 36.7422H59.7822C60.0228 36.7422 60.2519 36.645 60.4204 36.473C60.5842 36.2881 60.6699 36.0563 60.6488 35.8076C60.0418 28.624 55.2704 25.2765 45.6195 25.2765C37.0337 25.2765 31.913 28.902 31.913 34.979C31.913 41.5707 37.0086 43.3922 45.2498 44.2072C55.1087 45.1737 55.8754 46.6146 55.8754 48.5538C55.8754 51.9223 53.1716 53.3571 46.8301 53.3571Z" fill="#83CD29"/>
</svg>
