<svg width="70" height="72" viewBox="0 0 70 72" fill="none" xmlns="http://www.w3.org/2000/svg">
<g clip-path="url(#clip0_2028_341)">
<path d="M69.7285 43.1103C69.3088 41.8425 68.2093 40.9595 66.7874 40.7476C66.117 40.6478 65.3491 40.6903 64.4405 40.8771C62.8568 41.203 61.6818 41.3271 60.8243 41.3511C64.061 35.9012 66.6928 29.6863 68.2079 23.8361C70.6579 14.3764 69.3487 10.0669 67.8188 8.11768C63.77 2.9582 57.863 0.186472 50.7366 0.101663C46.935 0.0553037 43.5977 0.803865 41.8568 1.34218C40.2358 1.05693 38.4929 0.897674 36.6642 0.868222C33.2361 0.813682 30.2072 1.55897 27.6191 3.09073C26.1863 2.6075 23.8867 1.9263 21.2311 1.49161C14.9852 0.46899 9.95126 1.26582 6.26915 3.86001C1.81048 7.00097 -0.256436 12.4582 0.12583 20.0802C0.247236 22.5002 1.60458 29.8631 3.74177 36.8458C4.97005 40.8594 6.27981 44.1923 7.6347 46.753C9.55614 50.384 11.6121 52.5222 13.9202 53.2902C15.2138 53.7199 17.5643 54.021 20.0365 51.9676C20.3498 52.3461 20.7679 52.7221 21.3227 53.0715C22.0274 53.5146 22.889 53.8767 23.7495 54.0914C26.8505 54.8645 29.7552 54.6711 32.2334 53.5874C32.2487 54.027 32.2605 54.447 32.2703 54.8096C32.2867 55.3979 32.3031 55.9746 32.3247 56.514C32.4716 60.1611 32.7204 62.9969 33.4576 64.9811C33.4981 65.0902 33.5525 65.2565 33.6099 65.4329C33.9777 66.5559 34.5926 68.4359 36.1572 69.9082C37.7773 71.4334 39.7371 71.9011 41.5319 71.9011C42.4321 71.9011 43.2909 71.7833 44.0443 71.6224C46.7294 71.0484 49.7791 70.1741 51.9852 67.0413C54.0709 64.0798 55.0848 59.6193 55.2683 52.591C55.2921 52.3922 55.314 52.2024 55.335 52.0216L55.3788 51.6501L55.8702 51.6932L55.9968 51.7017C58.7317 51.826 62.0758 51.2476 64.1296 50.2962C65.7525 49.5452 70.953 46.807 69.7285 43.1103" fill="black"/>
<path d="M65.0523 43.8288C56.9202 45.5018 56.361 42.756 56.361 42.756C64.947 30.0501 68.5364 13.9218 65.4392 9.97446C56.9889 -0.793103 42.3613 4.2993 42.1171 4.43128L42.0387 4.44546C40.4319 4.11277 38.6341 3.91479 36.6131 3.88179C32.9337 3.8218 30.1425 4.84388 28.0244 6.44572C28.0244 6.44572 1.93031 -4.27521 3.1441 19.9291C3.40222 25.0782 10.5444 58.8906 19.0631 48.6777C22.1767 44.9431 25.1853 41.7855 25.1853 41.7855C26.6794 42.7754 28.4682 43.2804 30.3435 43.0991L30.4892 42.9758C30.4438 43.4394 30.4646 43.8929 30.5475 44.4298C28.3528 46.8751 28.9979 47.3044 24.6109 48.2051C20.1716 49.1175 22.7794 50.7417 24.4821 51.1666C26.5462 51.6812 31.3216 52.4104 34.5481 47.9057L34.4196 48.4197C35.2793 49.1066 35.883 52.8874 35.7819 56.3149C35.6807 59.7422 35.6132 62.0953 36.2905 63.9333C36.9683 65.7713 37.6434 69.9068 43.4108 68.6745C48.2296 67.6445 50.7269 64.9756 51.0744 60.5235C51.3208 57.3585 51.8789 57.8265 51.9139 54.9967L52.3615 53.6572C52.8775 49.3668 52.4435 47.9826 55.4122 48.6264L56.1341 48.6897C58.3189 48.7887 61.179 48.339 62.8576 47.561C66.4719 45.8882 68.6157 43.095 65.0517 43.8288H65.0523" fill="#336791"/>
<path d="M29.552 22.2319C28.8192 22.1301 28.1555 22.2242 27.8198 22.4778C27.6311 22.6205 27.5726 22.7857 27.5567 22.8994C27.5146 23.2008 27.7263 23.534 27.8564 23.7058C28.2245 24.1923 28.762 24.5266 29.2941 24.6003C29.3713 24.6112 29.4481 24.6161 29.5244 24.6161C30.4117 24.6161 31.2186 23.927 31.2897 23.4184C31.3786 22.7813 30.4513 22.3568 29.552 22.2321M53.8289 22.252C53.7589 21.7527 52.868 21.6104 52.0225 21.7276C51.1782 21.8449 50.3595 22.225 50.4279 22.7254C50.4825 23.1146 51.1872 23.7789 52.0212 23.7789C52.0917 23.7789 52.1628 23.7742 52.2345 23.7642C52.7912 23.6873 53.1997 23.3347 53.3938 23.1315C53.6891 22.8217 53.8603 22.4765 53.8289 22.252" fill="white"/>
<path d="M67.7585 43.6386C67.4484 42.7035 66.4503 42.4027 64.7922 42.7441C59.869 43.7575 58.1058 43.0556 57.527 42.6304C61.3537 36.8165 64.5018 29.7884 66.2001 23.2314C67.0046 20.1253 67.4489 17.2407 67.4853 14.8895C67.5255 12.3089 67.0847 10.4126 66.1758 9.25412C62.5112 4.58413 57.1327 2.07911 50.6221 2.01039C46.1462 1.96021 42.3646 3.10256 41.6315 3.4238C40.0877 3.04092 38.4047 2.80586 36.5724 2.77586C33.2124 2.72159 30.3079 3.52388 27.9033 5.15926C26.8588 4.77148 24.1594 3.8473 20.8582 3.3169C15.151 2.40063 10.6158 3.09492 7.37936 5.38151C3.51761 8.11015 1.73479 12.9877 2.08014 19.8782C2.19636 22.1965 3.52089 29.3281 5.61104 36.1579C8.36237 45.1472 11.3532 50.236 14.4999 51.2829C14.8683 51.4054 15.2929 51.491 15.7613 51.491C16.9092 51.491 18.3166 50.975 19.7808 49.2194C21.5668 47.0827 23.4143 44.9978 25.321 42.9675C26.558 43.6296 27.917 43.9994 29.3069 44.0365C29.3096 44.0727 29.3132 44.109 29.3164 44.145C29.0772 44.4295 28.8429 44.7182 28.6137 45.0108C27.6507 46.2301 27.4502 46.4839 24.3503 47.1204C23.4684 47.302 21.1264 47.7834 21.092 49.4206C21.0548 51.2096 23.8605 51.9608 24.1802 52.0405C25.2942 52.3186 26.3674 52.4558 27.3909 52.4558C29.88 52.4558 32.0705 51.6399 33.821 50.0612C33.7672 56.4386 34.0338 62.7227 34.8016 64.6373C35.4305 66.2048 36.9667 70.0354 41.8191 70.0351C42.5311 70.0351 43.3148 69.9525 44.1769 69.7682C49.2413 68.6855 51.4405 66.4532 52.2912 61.5318C52.7465 58.9016 53.5277 52.6211 53.8952 49.2521C54.6707 49.4935 55.669 49.6039 56.7482 49.6036C58.9992 49.6036 61.5966 49.1267 63.2254 48.3727C65.0553 47.5251 68.3573 45.4455 67.7585 43.6386V43.6386ZM55.6982 20.8736C55.6816 21.8681 55.5443 22.771 55.3988 23.7135C55.2421 24.7271 55.0803 25.7751 55.0395 27.0472C54.9993 28.2853 55.1544 29.5725 55.3042 30.8173C55.6072 33.3316 55.9181 35.9201 54.7147 38.4742C54.5148 38.121 54.3367 37.7559 54.1815 37.3809C54.0319 37.0193 53.7071 36.4385 53.2573 35.6346C51.5075 32.5051 47.4101 25.1765 49.5076 22.1861C50.1324 21.296 51.7181 20.3808 55.6982 20.8736V20.8736ZM50.8737 4.02428C56.7072 4.15272 61.3217 6.32914 64.5888 10.4927C67.0946 13.6863 64.3353 28.2177 56.3474 40.754C56.267 40.6521 56.1863 40.5506 56.1051 40.4494L56.0039 40.3234C58.0681 36.9236 57.6645 33.5599 57.3052 30.5776C57.1576 29.3537 57.0181 28.1978 57.0537 27.1119C57.0903 25.9611 57.2429 24.9739 57.3905 24.0195C57.5718 22.8433 57.7564 21.6262 57.7055 20.1916C57.7435 20.041 57.7589 19.8632 57.7389 19.6522C57.609 18.2764 56.034 14.1589 52.8239 10.4322C51.0678 8.39375 48.5071 6.11262 45.0107 4.57404C46.5146 4.26317 48.5711 3.97329 50.8737 4.02428V4.02428ZM18.2313 47.9344C16.618 49.869 15.504 49.4981 15.1376 49.3765C12.7505 48.5824 9.98057 43.5505 7.5385 35.5713C5.42538 28.6671 4.19053 21.7244 4.09264 19.7776C3.78421 13.6206 5.28073 9.32966 8.54093 7.02371C13.8467 3.27136 22.5699 5.51731 26.0751 6.65638C26.0248 6.70601 25.9723 6.75237 25.9225 6.80282C20.1705 12.5961 20.3069 22.494 20.3212 23.0991C20.3206 23.3325 20.3403 23.663 20.3671 24.1176C20.4661 25.7825 20.6504 28.8809 20.1582 32.3897C19.701 35.6504 20.7089 38.8418 22.9229 41.1458C23.1501 41.3818 23.389 41.6065 23.6385 41.8189C22.653 42.8715 20.5112 45.1993 18.2313 47.9344V47.9344ZM24.3779 39.7553C22.5934 37.8983 21.783 35.3152 22.154 32.6679C22.6735 28.9613 22.4819 25.7331 22.3788 23.9987C22.3643 23.756 22.3514 23.5433 22.344 23.3756C23.1843 22.6325 27.0783 20.5518 29.8554 21.1864C31.1225 21.4757 31.8947 22.3364 32.2157 23.8166C33.8771 31.4803 32.4355 34.6744 31.2773 37.2413C31.0385 37.7701 30.813 38.2699 30.6205 38.787L30.4712 39.1868C30.0933 40.1974 29.7416 41.1371 29.5237 42.0294C27.6266 42.0239 25.7812 41.2156 24.3779 39.7551V39.7553ZM24.6691 50.0907C24.1151 49.9527 23.6169 49.713 23.3246 49.5142C23.5688 49.3996 24.0033 49.2437 24.7569 49.0888C28.4037 48.3402 28.967 47.8117 30.1969 46.2543C30.4788 45.8971 30.7985 45.4924 31.2412 44.9994L31.2417 44.9988C31.901 44.2625 32.2026 44.3874 32.7494 44.6138C33.1927 44.7965 33.6244 45.3506 33.7994 45.9604C33.8823 46.2483 33.9753 46.7948 33.6709 47.2202C31.1017 50.8079 27.3578 50.7618 24.6691 50.0907V50.0907ZM43.7548 67.8031C39.2933 68.7564 37.7137 66.4862 36.6727 63.8909C36.0009 62.2155 35.6706 54.66 35.9049 46.3162C35.9079 46.2052 35.8921 46.0981 35.8614 45.9972C35.834 45.7979 35.7924 45.6009 35.7367 45.4076C35.3884 44.1935 34.5394 43.178 33.5208 42.757C33.1161 42.5898 32.3735 42.283 31.481 42.5107C31.6713 41.7286 32.0013 40.8453 32.3592 39.889L32.5094 39.4867C32.6783 39.0332 32.8905 38.5634 33.1148 38.066C34.3269 35.3804 35.9869 31.702 34.1853 23.392C33.5104 20.2794 31.2567 18.7594 27.8404 19.1125C25.7924 19.3238 23.9185 20.1479 22.9839 20.6205C22.7829 20.722 22.5992 20.8201 22.4274 20.9156C22.6883 17.7795 23.6738 11.9187 27.3603 8.2105C29.6815 5.87619 32.7727 4.72321 36.539 4.78539C43.9601 4.90647 48.719 8.70463 51.4047 11.8699C53.7191 14.5971 54.9723 17.3446 55.4724 18.8264C51.7112 18.4449 49.1532 19.1853 47.8566 21.0342C45.0355 25.056 49.3999 32.8618 51.4974 36.6133C51.8821 37.3008 52.2141 37.895 52.3185 38.1475C53.0016 39.7984 53.8859 40.9007 54.5315 41.7051C54.7294 41.9517 54.9214 42.1908 55.0674 42.3997C53.9283 42.7272 51.8821 43.484 52.0686 47.2666C51.9182 49.1646 50.8488 58.0508 50.3055 61.1904C49.5883 65.3381 48.0578 66.883 43.7548 67.8034V67.8031ZM62.3769 46.5499C61.2121 47.0891 59.2628 47.4935 57.411 47.5805C55.3657 47.6759 54.3245 47.3519 54.0795 47.1526C53.9646 44.7954 54.8443 44.5491 55.7753 44.2884C55.9216 44.2475 56.0644 44.2074 56.2022 44.1594C56.2878 44.229 56.3816 44.298 56.4844 44.3656C58.1283 45.4477 61.0603 45.5644 65.1999 44.7122L65.2453 44.7032C64.6869 45.2238 63.7316 45.9225 62.3769 46.5499Z" fill="white"/>
</g>
<defs>
<clipPath id="clip0_2028_341">
<rect width="70" height="72" fill="white"/>
</clipPath>
</defs>
</svg>
