<svg width="80" height="80" viewBox="0 0 80 80" fill="none" xmlns="http://www.w3.org/2000/svg">
<path d="M39.6571 0.0224609C19.399 0.0224609 20.6639 8.84285 20.6639 8.84285L20.6864 17.981H40.0183V20.7246H13.0081C13.0081 20.7246 0.0449219 19.2485 0.0449219 39.7709C0.0449219 60.2938 11.3595 59.566 11.3595 59.566H18.112V50.0425C18.112 50.0425 17.7479 38.6825 29.2459 38.6825H48.4197C48.4197 38.6825 59.1922 38.8573 59.1922 28.2295V10.6571C59.1922 10.6571 60.8283 0.0224609 39.6571 0.0224609ZM28.9975 6.16772C29.4543 6.1673 29.9068 6.25734 30.3289 6.43267C30.751 6.608 31.1346 6.86519 31.4576 7.18951C31.7806 7.51383 32.0368 7.89893 32.2114 8.32275C32.386 8.74658 32.4757 9.20082 32.4753 9.65948C32.4757 10.1181 32.386 10.5724 32.2114 10.9962C32.0368 11.42 31.7806 11.8051 31.4576 12.1295C31.1346 12.4538 30.751 12.711 30.3289 12.8863C29.9068 13.0616 29.4543 13.1517 28.9975 13.1512C28.5407 13.1517 28.0883 13.0616 27.6661 12.8863C27.244 12.711 26.8604 12.4538 26.5374 12.1295C26.2144 11.8051 25.9582 11.42 25.7836 10.9962C25.609 10.5724 25.5193 10.1181 25.5197 9.65948C25.5193 9.20082 25.609 8.74658 25.7836 8.32275C25.9582 7.89893 26.2144 7.51383 26.5374 7.18951C26.8604 6.86519 27.244 6.608 27.6661 6.43267C28.0883 6.25734 28.5407 6.1673 28.9975 6.16772V6.16772Z" fill="url(#paint0_linear_1199_98)"/>
<path d="M40.2326 79.7259C60.4907 79.7259 59.2258 70.9055 59.2258 70.9055L59.2033 61.7676H39.8711V59.0241H66.8814C66.8814 59.0241 79.8445 60.5002 79.8445 39.9772C79.8445 19.4545 68.53 20.1824 68.53 20.1824H61.7775V29.7055C61.7775 29.7055 62.1415 41.0655 50.6435 41.0655H31.4697C31.4697 41.0655 20.6973 40.8908 20.6973 51.5189V69.0916C20.6973 69.0916 19.0615 79.7259 40.2323 79.7259H40.2326ZM50.8922 73.5813C50.4354 73.5817 49.983 73.4917 49.5609 73.3163C49.1387 73.141 48.7552 72.8838 48.4322 72.5595C48.1091 72.2352 47.853 71.8501 47.6783 71.4263C47.5037 71.0024 47.414 70.5482 47.4144 70.0895C47.414 69.6308 47.5036 69.1766 47.6783 68.7527C47.8529 68.3288 48.109 67.9437 48.432 67.6194C48.7551 67.295 49.1386 67.0378 49.5608 66.8624C49.9829 66.6871 50.4354 66.597 50.8922 66.5975C51.3491 66.597 51.8015 66.6871 52.2236 66.8624C52.6458 67.0377 53.0293 67.2949 53.3523 67.6192C53.6754 67.9436 53.9315 68.3287 54.1061 68.7525C54.2808 69.1763 54.3705 69.6306 54.37 70.0892C54.3705 70.5479 54.2808 71.0021 54.1061 71.4259C53.9315 71.8498 53.6754 72.2349 53.3523 72.5592C53.0293 72.8835 52.6458 73.1407 52.2236 73.316C51.8015 73.4914 51.3491 73.5814 50.8922 73.581V73.5813Z" fill="url(#paint1_linear_1199_98)"/>
<defs>
<linearGradient id="paint0_linear_1199_98" x1="7.71361" y1="7.19129" x2="47.4167" y2="46.341" gradientUnits="userSpaceOnUse">
<stop stop-color="#387EB8"/>
<stop offset="1" stop-color="#366994"/>
</linearGradient>
<linearGradient id="paint1_linear_1199_98" x1="31.9873" y1="32.4333" x2="74.6159" y2="72.5703" gradientUnits="userSpaceOnUse">
<stop stop-color="#FFE052"/>
<stop offset="1" stop-color="#FFC331"/>
</linearGradient>
</defs>
</svg>
