<svg width="88" height="78" viewBox="0 0 88 78" fill="none" xmlns="http://www.w3.org/2000/svg">
<path fill-rule="evenodd" clip-rule="evenodd" d="M88 39.0107C88 33.2086 80.7025 27.7131 69.5091 24.2988C72.0944 12.9442 70.9414 3.91319 65.8854 1.01928C64.7181 0.342136 63.3574 0.0213835 61.8678 0.0213835V4.00585C62.6914 4.00585 63.3574 4.16979 63.916 4.46916C66.3581 5.85909 67.4108 11.1622 66.5872 17.9836C66.3867 19.6586 66.0645 21.4263 65.6706 23.2296C62.1543 22.3743 58.3158 21.7114 54.2839 21.2837C51.8633 17.9836 49.3496 14.9827 46.8216 12.3597C52.6654 6.94252 58.151 3.98446 61.8822 3.98446V0C56.9479 0 50.4954 3.49977 43.9642 9.57269C37.4329 3.53541 30.9805 0.0712784 26.0462 0.0712784V4.05574C29.7559 4.05574 35.263 6.99954 41.1139 12.3739C38.6003 14.997 36.0938 17.9764 33.709 21.2837C29.6556 21.7114 25.8171 22.3743 22.3008 23.2439C21.8854 21.4619 21.5846 19.7299 21.3698 18.0691C20.5247 11.2477 21.5703 5.94462 23.9909 4.53331C24.528 4.21256 25.2298 4.07 26.0534 4.07V0.092662C24.5495 0.092662 23.1816 0.413415 22 1.09056C16.9583 3.98446 15.8268 13.0012 18.4336 24.3202C7.26172 27.7416 0 33.2229 0 39.0107C0 44.8128 7.29753 50.3083 18.4909 53.7226C15.9056 65.0772 17.0586 74.1082 22.1146 77.0021C23.2819 77.6792 24.6426 78 26.1536 78C31.0879 78 37.5404 74.5002 44.0716 68.4273C50.6029 74.4646 57.0553 77.9287 61.9896 77.9287C63.4935 77.9287 64.8613 77.608 66.043 76.9308C71.0846 74.0369 72.2161 65.0202 69.6094 53.7012C80.7383 50.2941 88 44.7914 88 39.0107ZM52.1784 39.0107C52.1784 34.5059 48.5117 30.8493 43.9785 30.8493C39.4525 30.8493 35.7786 34.4988 35.7786 39.0107C35.7786 43.5226 39.4453 47.1721 43.9785 47.1721C48.5117 47.1649 52.1784 43.5155 52.1784 39.0107ZM64.6465 27.1001C63.9805 29.4024 63.1569 31.7759 62.2259 34.1495C61.4883 32.7239 60.722 31.2912 59.877 29.8657C59.0534 28.4401 58.1725 27.043 57.2917 25.6888C59.8411 26.0665 62.2975 26.5298 64.6465 27.1001ZM56.4323 46.1171C55.0358 48.5264 53.5964 50.8144 52.1068 52.9385C49.4356 53.1737 46.7285 53.2949 44 53.2949C41.293 53.2949 38.5859 53.1666 35.929 52.9528C34.4395 50.8287 32.9857 48.562 31.5892 46.167C30.2285 43.8291 28.9896 41.4555 27.8581 39.0606C28.9681 36.6656 30.2285 34.2778 31.5677 31.9399C32.9642 29.5307 34.4036 27.2426 35.8932 25.1185C38.5645 24.8833 41.2715 24.7621 44 24.7621C46.707 24.7621 49.4141 24.8904 52.071 25.1043C53.5605 27.2284 55.0143 29.495 56.4108 31.89C57.7715 34.2279 59.0104 36.6015 60.1419 38.9964C59.0104 41.3843 57.7787 43.7721 56.4323 46.1171ZM62.2259 43.7935C63.1927 46.1884 64.0163 48.5763 64.7038 50.8999C62.3548 51.4702 59.877 51.9549 57.3132 52.3255C58.194 50.9498 59.0677 49.5385 59.8984 48.0916C60.7148 46.666 61.4883 45.219 62.2259 43.7935ZM44.0358 62.8391C42.3672 61.1284 40.6986 59.2181 39.0514 57.1297C40.6628 57.2009 42.3171 57.258 43.9857 57.258C45.6686 57.258 47.3372 57.2223 48.9701 57.1297C47.3516 59.2181 45.6829 61.1284 44.0358 62.8391ZM30.694 52.3255C28.1445 51.9477 25.6882 51.4844 23.3392 50.9142C24.0052 48.6119 24.8288 46.2383 25.7598 43.8648C26.4974 45.2903 27.2637 46.723 28.1087 48.1486C28.9538 49.5813 29.8132 50.9712 30.694 52.3255ZM43.9427 15.1752C45.6113 16.8859 47.28 18.7961 48.9271 20.8846C47.3158 20.8133 45.6615 20.7563 43.9928 20.7563C42.3099 20.7563 40.6413 20.7919 39.0085 20.8846C40.627 18.7961 42.2956 16.8859 43.9427 15.1752ZM30.6725 25.6888C29.7917 27.0644 28.918 28.4757 28.0872 29.9227C27.2637 31.3483 26.4902 32.781 25.7526 34.2065C24.7858 31.8116 23.9622 29.4237 23.2747 27.1001C25.6309 26.5441 28.1087 26.0665 30.6725 25.6888ZM14.4375 48.0417C8.08529 45.3473 3.98177 41.8119 3.98177 39.0107C3.98177 36.2094 8.09245 32.6527 14.4375 29.9797C15.9772 29.3168 17.6673 28.7323 19.4076 28.1764C20.4316 31.6761 21.778 35.3185 23.4466 39.0463C21.7995 42.7599 20.4674 46.3809 19.4648 49.8664C17.6888 49.3104 15.9987 48.7046 14.4375 48.0417ZM24.0911 73.5522C21.6491 72.1623 20.5964 66.8592 21.4199 60.0378C21.6204 58.3628 21.9427 56.5951 22.3366 54.7917C25.8529 55.6471 29.6914 56.31 33.7233 56.7376C36.1439 60.0378 38.6576 63.0387 41.1855 65.6617C35.3346 71.0717 29.849 74.0369 26.1178 74.0369C25.3086 74.0155 24.6283 73.8587 24.0911 73.5522ZM66.6374 59.9523C67.4824 66.7736 66.4369 72.0768 64.0163 73.4881C63.4792 73.8088 62.7773 73.9514 61.9538 73.9514C58.2441 73.9514 52.737 71.0076 46.8861 65.6332C49.3997 63.0101 51.9063 60.0307 54.291 56.7234C58.3444 56.2957 62.1829 55.6328 65.6992 54.7561C66.1146 56.5594 66.4369 58.2915 66.6374 59.9523ZM73.541 48.0417C72.0013 48.7046 70.3112 49.289 68.571 49.845C67.5469 46.3452 66.2005 42.7029 64.5319 38.9751C66.179 35.2614 67.5111 31.6405 68.5137 28.155C70.2897 28.711 71.9727 29.3168 73.5553 29.9726C79.9076 32.6669 84.0111 36.2023 84.0111 39.0036C83.9967 41.8119 79.8932 45.3616 73.541 48.0417Z" fill="#00D8FF"/>
</svg>
