<svg width="68" height="78" viewBox="0 0 68 78" fill="none" xmlns="http://www.w3.org/2000/svg">
<path d="M66.2001 17.9004L35.8636 0.439659C35.3612 0.125617 34.6703 0 33.9166 0C33.1629 0 32.472 0.188425 31.9695 0.439659L1.82145 17.9632C0.753701 18.5913 0 20.1615 0 21.3549V56.3392C0 57.0301 0.125617 57.8466 0.628085 58.5375L67.7075 19.5962C67.3307 18.8425 66.7654 18.2773 66.2001 17.9004V17.9004Z" fill="#9B4F96"/>
<path d="M0.439453 58.4749C0.753495 58.9774 1.19315 59.4171 1.63281 59.6683L31.9065 77.1919C32.409 77.5059 33.0998 77.6315 33.8536 77.6315C34.6073 77.6315 35.2981 77.4431 35.8006 77.1919L65.9487 59.6683C67.0164 59.0402 67.7701 57.47 67.7701 56.2766V21.2923C67.7701 20.7271 67.7073 20.099 67.3933 19.5337L0.439453 58.4749V58.4749Z" fill="#68217A"/>
<path d="M47.295 46.4155C44.657 51.0633 39.6323 54.2038 33.9168 54.2038C25.4376 54.2038 18.5287 47.2948 18.5287 38.8157C18.5287 30.3365 25.4376 23.4276 33.9168 23.4276C39.6323 23.4276 44.657 26.568 47.295 31.2787L55.4601 26.568C51.1891 19.0938 43.1496 14.0063 33.9168 14.0063C20.2245 14.0063 9.10742 25.1234 9.10742 38.8157C9.10742 52.5079 20.2245 63.625 33.9168 63.625C43.0868 63.625 51.1263 58.6003 55.3973 51.189L47.295 46.4155V46.4155ZM54.6436 40.1975L55.2088 37.4967H52.5709V34.5447H55.7741L56.5278 30.6506H59.6054L58.8517 34.4819H61.2384L61.9921 30.6506H65.0069L64.2532 34.4819H65.7606V37.4339H63.688L63.1227 40.1347H65.7606V43.0867H62.5574L61.8037 46.8552H58.7261L59.4798 43.0867H57.0931L56.3394 46.8552H53.3246L54.0783 43.0867H52.5709V40.1347H54.6436V40.1975ZM57.6584 40.1975H60.0451L60.6104 37.4967H58.2236L57.6584 40.1975Z" fill="white"/>
</svg>
